<svg width="50" height="50" viewBox="0 0 50 50" fill="none" xmlns="http://www.w3.org/2000/svg">
<path d="M0 50H50V5.7742e-06H0V50Z" fill="white"/>
<path d="M17.7383 23.474C18.2915 27.1549 16.717 27.8659 13.6388 26.4781C11.4424 24.6802 13.1724 22.7127 14.5725 24.5014C14.5632 23.4832 15.3058 23.1375 15.7529 23.7506C16.1794 22.6717 17.2912 22.8201 17.7383 23.474" fill="#5BDD40"/>
<path d="M12.8315 24.947C12.799 24.7789 12.8026 24.6283 12.8328 24.5025C12.894 24.2481 13.0589 24.0739 13.2851 24.0248C13.3282 24.0154 13.3726 24.0108 13.4177 24.0108C13.6231 24.0108 13.8469 24.1059 14.0642 24.2824C13.9181 24.2186 13.7766 24.1891 13.6445 24.1891C13.2216 24.1891 12.8961 24.4919 12.8315 24.947V24.947ZM14.6865 24.6971C14.6792 24.6971 14.672 24.6965 14.6647 24.6954C14.7397 24.6599 14.7882 24.5838 14.7875 24.4995C14.7831 24.0155 14.9691 23.7368 15.1553 23.6751C15.1836 23.6658 15.2122 23.6613 15.2411 23.6613C15.3495 23.6613 15.4605 23.726 15.5577 23.8478C15.5278 23.8423 15.4978 23.8395 15.468 23.8395C15.1767 23.8395 14.903 24.1024 14.823 24.5801C14.8109 24.6526 14.7496 24.6971 14.6865 24.6971ZM15.9422 24.0355C15.9106 24.0355 15.8788 24.0245 15.8531 24.0013C15.8363 23.9861 15.8193 23.9721 15.8022 23.9593C15.8702 23.9434 15.9268 23.8951 15.953 23.8293C16.1038 23.4479 16.3656 23.2179 16.6901 23.1815C16.7201 23.1781 16.7503 23.1765 16.7807 23.1765C16.9023 23.1765 17.025 23.203 17.1395 23.2519C17.1035 23.2858 17.0676 23.3203 17.0323 23.355C17.0243 23.3548 17.0163 23.3548 17.0082 23.3548C16.6531 23.3548 16.2948 23.5343 16.064 23.9626C16.0386 24.0096 15.9906 24.0354 15.9422 24.0355" fill="#B5F0A9"/>
<path d="M13.639 26.6926C13.5911 26.6926 13.543 26.6768 13.5031 26.644C12.6521 25.9475 12.2455 25.1094 12.4155 24.4021C12.5151 23.9875 12.8061 23.6896 13.194 23.6052C13.5935 23.5184 14.022 23.6657 14.4122 24.0141C14.5208 23.5841 14.7763 23.3484 15.0205 23.2676C15.2516 23.1911 15.4893 23.2357 15.6942 23.3864C15.988 22.9031 16.4005 22.782 16.6422 22.7549C17.1296 22.7002 17.63 22.935 17.9158 23.3529C17.9828 23.4507 17.9577 23.5844 17.8598 23.6512C17.7621 23.7182 17.6286 23.6931 17.5615 23.5952C17.3672 23.3111 17.017 23.1449 16.6901 23.1815C16.3656 23.2179 16.1038 23.4479 15.953 23.8292C15.9241 23.902 15.8581 23.9532 15.7805 23.9632C15.7031 23.9729 15.6261 23.94 15.58 23.8767C15.4521 23.7016 15.2976 23.628 15.1553 23.6751C14.9691 23.7367 14.7831 24.0155 14.7875 24.4995C14.7883 24.5914 14.7305 24.6736 14.6437 24.704C14.5572 24.7344 14.4606 24.7061 14.4038 24.6336C14.047 24.1777 13.629 23.95 13.2851 24.0247C13.0588 24.0739 12.894 24.2481 12.8328 24.5025C12.7321 24.9219 12.9266 25.6174 13.775 26.3119C13.8667 26.387 13.8802 26.5223 13.8051 26.614C13.7627 26.6658 13.7011 26.6926 13.639 26.6926" fill="#390176"/>
<path d="M43.5959 13.102L18.2215 12.7881C17.8646 12.7837 17.5776 12.4932 17.5776 12.1364C17.5776 11.7794 17.8646 11.4889 18.2215 11.4845L43.5959 11.1706C44.1339 11.164 44.5736 11.5982 44.5736 12.1364C44.5736 12.6744 44.1339 13.1086 43.5959 13.102Z" fill="#FF1564"/>
<path d="M17.7969 12.0718C17.828 11.8637 18.0076 11.7015 18.2239 11.6988L18.7455 11.6924C18.7454 11.6997 18.7454 11.7069 18.7454 11.7142V11.9103L18.2199 11.9132C18.0578 11.9138 17.9109 11.9733 17.7969 12.0718V12.0718ZM24.6961 11.8784V11.7142C24.6961 11.682 24.6946 11.6503 24.6917 11.6189L42.6037 11.3974C42.5105 11.513 42.441 11.6437 42.3973 11.7834L24.6961 11.8784" fill="#FF95B9"/>
<path d="M43.5983 12.8873C43.6015 12.8873 43.6047 12.8873 43.6078 12.8873C43.8067 12.8873 43.9937 12.8107 44.1354 12.6707C44.2794 12.5284 44.3587 12.3387 44.3587 12.1363C44.3587 11.9338 44.2794 11.744 44.1354 11.6018C43.9937 11.4619 43.8067 11.3852 43.6078 11.3852C43.6047 11.3852 43.6015 11.3852 43.5983 11.3852L18.2239 11.6989C17.9858 11.7019 17.7922 11.898 17.7922 12.1363C17.7922 12.3744 17.9858 12.5705 18.2239 12.5734L43.5983 12.8873V12.8873ZM43.608 13.3167C43.603 13.3167 43.598 13.3165 43.593 13.3165L18.2187 13.0027C17.7468 12.9969 17.3628 12.6082 17.3628 12.1363C17.3628 11.6643 17.7468 11.2756 18.2187 11.2698L43.593 10.9559C43.9088 10.9522 44.2108 11.0729 44.437 11.2964C44.6633 11.5199 44.7879 11.8182 44.7879 12.1363C44.7879 12.4543 44.6633 12.7525 44.437 12.976C44.2144 13.196 43.9204 13.3167 43.608 13.3167Z" fill="#390176"/>
<path d="M43.5242 13.3167C43.2119 13.3167 42.9179 13.196 42.6951 12.976C42.4689 12.7525 42.3442 12.4543 42.3442 12.1363C42.3442 11.8182 42.4689 11.5199 42.6952 11.2964C42.9215 11.0729 43.2231 10.9518 43.5392 10.9559L43.534 11.3852C43.3299 11.3827 43.1409 11.4597 42.9969 11.6019C42.8529 11.744 42.7736 11.9338 42.7736 12.1363C42.7736 12.3387 42.8529 12.5284 42.9969 12.6707C43.1386 12.8105 43.3256 12.8873 43.5244 12.8873C43.5276 12.8873 43.5307 12.8873 43.534 12.8873L43.5392 13.3165C43.5342 13.3165 43.5292 13.3167 43.5242 13.3167Z" fill="#390176"/>
<path d="M43.6077 12.8872C43.6046 12.8872 43.6014 12.8872 43.5982 12.8872L43.4748 12.8857C43.2946 12.8741 43.1266 12.7988 42.9967 12.6706C42.8527 12.5283 42.7734 12.3386 42.7734 12.1362C42.7734 11.9337 42.8527 11.744 42.9967 11.6018C43.1266 11.4736 43.2929 11.3983 43.4741 11.3866L43.5982 11.3851C43.6014 11.3851 43.6046 11.3851 43.6077 11.3851C43.8066 11.3851 43.9936 11.4618 44.1353 11.6017C44.2793 11.744 44.3586 11.9337 44.3586 12.1362C44.3586 12.3386 44.2793 12.5283 44.1353 12.6706C43.9936 12.8106 43.8066 12.8872 43.6077 12.8872" fill="#C30F69"/>
<path d="M43.5365 13.1018L43.5339 12.8872C43.5306 12.8872 43.5275 12.8872 43.5242 12.8872C43.5077 12.8872 43.4912 12.8867 43.4749 12.8857L43.5982 12.8872C43.6015 12.8872 43.6046 12.8872 43.6077 12.8872C43.8066 12.8872 43.9936 12.8106 44.1354 12.6706C44.2794 12.5283 44.3586 12.3386 44.3586 12.1362C44.3586 11.9337 44.2794 11.7439 44.1354 11.6017C43.9936 11.4618 43.8066 11.3851 43.6077 11.3851C43.6046 11.3851 43.6015 11.3851 43.5982 11.3851L43.4741 11.3866C43.4906 11.3856 43.5072 11.3851 43.5239 11.3851C43.5272 11.3851 43.5306 11.3851 43.5339 11.3851L43.5365 11.1704C44.8997 11.1704 44.8997 13.1018 43.5365 13.1018Z" fill="#390176"/>
<path d="M43.5246 13.1021C42.9921 13.1021 42.5591 12.6702 42.5591 12.1363C42.5591 11.6023 42.9921 11.1706 43.5246 11.1706C43.5286 11.1706 43.5326 11.1706 43.5367 11.1706L43.5341 11.3852C43.5308 11.3852 43.5274 11.3852 43.5241 11.3852C43.5074 11.3852 43.4908 11.3857 43.4743 11.3867C43.2932 11.3985 43.1268 11.4737 42.997 11.6019C42.853 11.7441 42.7737 11.9338 42.7737 12.1363C42.7737 12.3387 42.853 12.5284 42.997 12.6707C43.1268 12.7989 43.2948 12.8742 43.4751 12.8858C43.4915 12.8868 43.508 12.8873 43.5245 12.8873C43.5277 12.8873 43.5308 12.8873 43.5341 12.8873L43.5367 13.1019C43.5327 13.1019 43.5286 13.1021 43.5246 13.1021" fill="#390176"/>
<path d="M19.7992 10.875H23.6421C24.1056 10.875 24.4813 11.2507 24.4813 11.7142V28.0577C24.4813 28.5212 24.1056 28.897 23.6421 28.897H19.7992C19.3357 28.897 18.96 28.5212 18.96 28.0577V11.7142C18.96 11.2507 19.3357 10.875 19.7992 10.875Z" fill="#F9B800"/>
<path d="M19.6581 19.8247C19.4704 19.8247 19.3002 19.7507 19.1748 19.6303V17.9142C19.3002 17.7939 19.4704 17.7199 19.6581 17.7199C19.8421 17.7199 20.0094 17.7911 20.1342 17.9075V19.637C20.0094 19.7535 19.8421 19.8247 19.6581 19.8247" fill="#FCDF8C"/>
<path d="M21.0347 19.3237C20.8531 19.3237 20.6876 19.2544 20.5635 19.1405V17.4021C20.6876 17.2884 20.8531 17.2189 21.0347 17.2189C21.2165 17.2189 21.382 17.2884 21.5062 17.4022V19.1405C21.382 19.2544 21.2165 19.3237 21.0347 19.3237Z" fill="#FCDF8C"/>
<path d="M22.4305 19.8723C22.237 19.8723 22.0619 19.7937 21.9355 19.6664V17.9734C22.0619 17.8462 22.237 17.7674 22.4305 17.7674C22.6009 17.7674 22.757 17.8285 22.8783 17.93V19.7098C22.757 19.8113 22.6009 19.8723 22.4305 19.8723" fill="#FCDF8C"/>
<path d="M23.7304 19.3237C23.5715 19.3237 23.425 19.2707 23.3076 19.1812V17.3615C23.425 17.272 23.5715 17.2189 23.7304 17.2189C23.9461 17.2189 24.139 17.3169 24.267 17.4707V19.072C24.139 19.2259 23.9461 19.3237 23.7304 19.3237" fill="#FCDF8C"/>
<path d="M19.1748 11.7981V11.7143C19.1748 11.37 19.4551 11.0897 19.7994 11.0897H20.1342V11.5191H19.7997C19.5514 11.5191 19.3284 11.6268 19.1748 11.7981ZM24.2669 11.7977C24.1133 11.6266 23.8904 11.5191 23.6423 11.5191H23.3076V11.0897H23.6423C23.9867 11.0897 24.2669 11.37 24.2669 11.7143V11.7977ZM22.8783 11.5191H21.9356V11.0897H22.8783V11.5191ZM21.5063 11.5191H20.5636V11.0897H21.5063V11.5191Z" fill="#FCDF8C"/>
<path d="M19.7995 11.0896C19.4551 11.0896 19.1749 11.3698 19.1749 11.7142V28.0577C19.1749 28.4021 19.4551 28.6823 19.7995 28.6823H23.6424C23.9867 28.6823 24.267 28.4021 24.267 28.0577V11.7142C24.267 11.3698 23.9867 11.0896 23.6424 11.0896H19.7995ZM23.6424 29.1116H19.7995C19.2184 29.1116 18.7456 28.6388 18.7456 28.0577V11.7142C18.7456 11.1331 19.2184 10.6603 19.7995 10.6603H23.6424C24.2235 10.6603 24.6964 11.1331 24.6964 11.7142V28.0577C24.6964 28.6388 24.2235 29.1116 23.6424 29.1116" fill="#390176"/>
<path d="M20.5637 28.6823H21.5064V11.0896H20.5637V28.6823ZM21.9357 29.1116H20.1343V10.6603H21.9357V29.1116Z" fill="#390176"/>
<path d="M21.9356 28.6823H22.8783V11.0896H21.9356V28.6823ZM23.3076 29.1116H21.5063V10.6603H23.3076V29.1116Z" fill="#390176"/>
<path d="M34.2832 29.1616C34.2832 32.6336 31.4587 35.4575 27.9873 35.4575C26.2374 35.4575 24.6519 34.7399 23.5094 33.583C22.3862 32.4455 21.6914 30.883 21.6914 29.1616C21.6914 25.9923 24.0467 23.3615 27.0988 22.9288C27.3892 22.8873 27.6854 22.8658 27.9873 22.8658C31.4587 22.8658 34.2832 25.6903 34.2832 29.1616Z" fill="#F9B800"/>
<path d="M30.5176 24.4312C30.1424 24.2297 29.7409 24.0717 29.3192 23.9635C29.274 23.8527 29.2645 23.7268 29.2997 23.6038C29.34 23.4633 29.4301 23.3523 29.5444 23.2828C29.9714 23.396 30.3802 23.5546 30.7651 23.7531C30.8146 23.8899 30.8105 24.0457 30.7406 24.1868L30.735 24.198C30.685 24.299 30.6081 24.3783 30.5176 24.4312" fill="#FCDF8C"/>
<path d="M30.0566 25.4839C29.7522 25.312 29.4245 25.1766 29.0795 25.0841C28.9764 24.9491 28.937 24.77 28.9867 24.5964C29.0136 24.5026 29.0627 24.422 29.1264 24.3581C29.6105 24.4729 30.0669 24.659 30.4845 24.9049C30.4894 24.9966 30.4715 25.0909 30.4276 25.1794L30.422 25.1908C30.3464 25.3433 30.2097 25.4461 30.0566 25.4839Z" fill="#FCDF8C"/>
<path d="M28.8 26.1384H27.8372C27.7613 25.8834 27.6699 25.6344 27.5645 25.3934C27.7033 25.3781 27.8444 25.3701 27.9872 25.3701C28.2009 25.3701 28.4107 25.3878 28.6148 25.422C28.6324 25.4765 28.6493 25.5314 28.6654 25.5866C28.7183 25.7673 28.7633 25.9513 28.8 26.1384V26.1384ZM27.3692 24.9859C27.2504 24.7592 27.1187 24.5398 26.975 24.3297C27.3018 24.2613 27.6404 24.2253 27.9872 24.2253C27.996 24.2253 28.0048 24.2254 28.0135 24.2254C28.0413 24.3394 28.0632 24.4587 28.0798 24.5825L28.2273 24.4869C28.3072 24.6429 28.3809 24.8027 28.4478 24.9658C28.2964 24.9493 28.1429 24.9408 27.9872 24.9408C27.7772 24.9408 27.5709 24.9562 27.3692 24.9859V24.9859ZM26.6973 23.9528C26.5318 23.7444 26.3538 23.5462 26.1646 23.3595C26.5236 23.2465 26.8972 23.166 27.2812 23.1214C27.4748 23.3344 27.6539 23.5607 27.8172 23.7988C27.4323 23.8108 27.0578 23.8635 26.6973 23.9528" fill="#BF8124"/>
<path d="M27.9871 23.0807C24.6338 23.0807 21.9059 25.8087 21.9059 29.1619C21.9059 32.515 24.6338 35.2431 27.9871 35.2431C31.3403 35.2431 34.0683 32.515 34.0683 29.1619C34.0683 25.8087 31.3403 23.0807 27.9871 23.0807V23.0807ZM27.9871 35.6724C24.3972 35.6724 21.4766 32.7518 21.4766 29.1619C21.4766 25.5719 24.3972 22.6514 27.9871 22.6514C31.5769 22.6514 34.4977 25.5719 34.4977 29.1619C34.4977 32.7518 31.5769 35.6724 27.9871 35.6724Z" fill="#390176"/>
<path d="M27.9873 24.2255C25.2653 24.2255 23.051 26.44 23.051 29.1621C23.051 31.8841 25.2653 34.0986 27.9873 34.0986C30.7095 34.0986 32.9238 31.8841 32.9238 29.1621C32.9238 26.44 30.7095 24.2255 27.9873 24.2255ZM27.9873 34.5278C25.0287 34.5278 22.6216 32.1207 22.6216 29.1621C22.6216 26.2033 25.0287 23.7962 27.9873 23.7962C30.9461 23.7962 33.3532 26.2033 33.3532 29.1621C33.3532 32.1207 30.9461 34.5278 27.9873 34.5278" fill="#390176"/>
<path d="M27.9872 25.3702C25.8965 25.3702 24.1955 27.0712 24.1955 29.1621C24.1955 31.2528 25.8965 32.9538 27.9872 32.9538C30.0781 32.9538 31.7791 31.2528 31.7791 29.1621C31.7791 27.0712 30.0781 25.3702 27.9872 25.3702ZM27.9872 33.3831C25.6597 33.3831 23.7661 31.4896 23.7661 29.1621C23.7661 26.8344 25.6597 24.9409 27.9872 24.9409C30.3147 24.9409 32.2084 26.8344 32.2084 29.1621C32.2084 31.4896 30.3147 33.3831 27.9872 33.3831Z" fill="#390176"/>
<path d="M27.892 27.9942C27.892 31.4656 25.0675 34.29 21.5962 34.29C18.1242 34.29 15.3003 31.4656 15.3003 27.9942C15.3003 24.5222 18.1242 21.6983 21.5962 21.6983C22.6357 21.6983 23.6165 21.9516 24.4815 22.3995L24.483 22.4002C25.9968 23.1843 27.1537 24.5658 27.6402 26.2307C27.804 26.7901 27.892 27.3824 27.892 27.9942Z" fill="#F9B800"/>
<path d="M18.7631 23.4385C18.6611 23.4 18.5698 23.3314 18.5037 23.2355C18.4143 23.1057 18.3882 22.9529 18.4168 22.8116C18.7971 22.5774 19.2052 22.3839 19.6346 22.2371C19.735 22.293 19.8187 22.3804 19.8696 22.4935L19.8747 22.505C19.9335 22.6357 19.9375 22.7775 19.8966 22.9039C19.4957 23.038 19.1157 23.2184 18.7631 23.4385" fill="#FCDF8C"/>
<path d="M19.3876 24.3977C19.2416 24.3752 19.106 24.2952 19.0165 24.1653C18.9492 24.0677 18.9178 23.9571 18.9185 23.8481C19.326 23.584 19.7746 23.3783 20.2525 23.243C20.306 23.2921 20.3506 23.3527 20.3822 23.4233L20.3875 23.435C20.4668 23.6117 20.4463 23.8085 20.35 23.9603C20.0088 24.066 19.686 24.2137 19.3876 24.3977" fill="#FCDF8C"/>
<path d="M19.9057 25.4243C19.7631 25.3868 19.6367 25.2933 19.5613 25.1552C19.5059 25.0539 19.4857 24.9438 19.4956 24.8381C19.8856 24.5777 20.3262 24.3877 20.7993 24.2862C20.8884 24.3517 20.9588 24.4446 20.9962 24.5579L21.0002 24.5699C21.0466 24.7103 21.0338 24.8562 20.9757 24.9802C20.5876 25.0599 20.2258 25.2131 19.9057 25.4243Z" fill="#FCDF8C"/>
<path d="M21.5959 21.9125C18.2428 21.9125 15.5148 24.6404 15.5148 27.9937C15.5148 31.3469 18.2428 34.0749 21.5959 34.0749C24.9492 34.0749 27.6772 31.3469 27.6772 27.9937C27.6772 24.6404 24.9492 21.9125 21.5959 21.9125ZM21.5959 34.5042C18.0061 34.5042 15.0854 31.5835 15.0854 27.9937C15.0854 24.4038 18.0061 21.4832 21.5959 21.4832C25.1858 21.4832 28.1064 24.4038 28.1064 27.9937C28.1064 31.5835 25.1858 34.5042 21.5959 34.5042" fill="#390176"/>
<path d="M21.5958 23.0574C18.8737 23.0574 16.6592 25.2719 16.6592 27.9939C16.6592 30.7159 18.8737 32.9304 21.5958 32.9304C24.3179 32.9304 26.5323 30.7159 26.5323 27.9939C26.5323 25.2719 24.3179 23.0574 21.5958 23.0574ZM21.5958 33.3596C18.637 33.3596 16.23 30.9526 16.23 27.9939C16.23 25.0351 18.637 22.6281 21.5958 22.6281C24.5545 22.6281 26.9617 25.0351 26.9617 27.9939C26.9617 30.9526 24.5545 33.3596 21.5958 33.3596" fill="#390176"/>
<path d="M21.5956 24.202C19.5049 24.202 17.8039 25.903 17.8039 27.9937C17.8039 30.0846 19.5049 31.7856 21.5956 31.7856C23.6865 31.7856 25.3875 30.0846 25.3875 27.9937C25.3875 25.903 23.6865 24.202 21.5956 24.202ZM21.5956 32.2148C19.2681 32.2148 17.3745 30.3212 17.3745 27.9937C17.3745 25.6662 19.2681 23.7727 21.5956 23.7727C23.9231 23.7727 25.8168 25.6662 25.8168 27.9937C25.8168 30.3212 23.9231 32.2148 21.5956 32.2148" fill="#390176"/>
<path d="M21.5959 25.3466C20.1363 25.3466 18.9489 26.5341 18.9489 27.9937C18.9489 29.4533 20.1363 30.6408 21.5959 30.6408C23.0557 30.6408 24.243 29.4533 24.243 27.9937C24.243 26.5341 23.0557 25.3466 21.5959 25.3466ZM21.5959 31.0701C19.8997 31.0701 18.5195 29.6901 18.5195 27.9937C18.5195 26.2974 19.8997 24.9173 21.5959 24.9173C23.2923 24.9173 24.6724 26.2974 24.6724 27.9937C24.6724 29.6901 23.2923 31.0701 21.5959 31.0701" fill="#390176"/>
<path d="M34.203 21.657C33.2416 21.336 31.9149 22.715 31.2394 24.7373C30.5638 26.7606 31.0364 27.9391 31.9978 28.2602C36.8643 30.0843 37.4593 22.7445 34.203 21.657Z" fill="white"/>
<path d="M35.9089 26.1387C35.9045 26.1385 35.9001 26.1385 35.8959 26.1385H34.8271C34.8485 26.0792 34.8695 26.0185 34.89 25.957C35.3324 24.6324 35.3969 23.3783 35.1304 22.5273C35.5228 22.9616 35.8073 23.5557 35.9406 24.2523C36.0646 24.8998 36.0474 25.5524 35.9089 26.1387" fill="#C3B2D6"/>
<path d="M33.9154 21.8261C33.5753 21.8261 33.1698 22.05 32.7684 22.4673C32.2303 23.0265 31.7595 23.8569 31.4428 24.8054C30.8703 26.5198 31.103 27.7353 32.0655 28.0566L32.0728 28.0593C33.2436 28.498 34.2414 28.4104 34.9586 27.8055C35.8145 27.0836 36.209 25.6556 35.9404 24.2523C35.7113 23.0558 35.0363 22.1616 34.1348 21.8606C34.0655 21.8375 33.992 21.8261 33.9154 21.8261V21.8261ZM33.4456 28.7656C33.0091 28.7656 32.5046 28.6791 31.9256 28.4625C30.9876 28.1468 30.2623 26.9851 31.0356 24.6694C31.3721 23.6618 31.8776 22.7739 32.459 22.1696C33.0794 21.5249 33.7225 21.2704 34.2708 21.4534C35.3215 21.8044 36.1033 22.8205 36.362 24.1715C36.6589 25.7226 36.2063 27.3148 35.2354 28.1336C34.8515 28.4574 34.2695 28.7656 33.4456 28.7656" fill="#390176"/>
<path d="M32.4667 28.5173C32.2922 28.5173 32.1163 28.4883 31.9409 28.4297L32.0542 28.0905C32.4952 28.2377 32.9449 28.1437 33.3549 27.8188C33.8317 27.4411 34.2452 26.7581 34.5504 25.8437C35.1828 23.9505 34.9977 22.1108 34.1462 21.8265L34.2594 21.4872C35.3305 21.845 35.6074 23.8083 34.8898 25.9571C34.5577 26.9515 34.116 27.6722 33.577 28.0992C33.227 28.3767 32.8502 28.5173 32.4667 28.5173" fill="#390176"/>
<path d="M32.1688 27.3642C32.6874 27.5374 33.3445 26.9688 33.6367 26.0942C33.9288 25.2196 33.7452 24.3702 33.2265 24.1969C32.7078 24.0237 32.0507 24.5923 31.7585 25.4669C31.4664 26.3416 31.65 27.1909 32.1688 27.3642Z" fill="#F9B800"/>
<path d="M32.1687 27.3642C32.687 27.5373 33.3443 26.9691 33.6364 26.0946C33.8659 25.4073 33.8015 24.7365 33.5124 24.3957C33.5541 24.7135 33.5172 25.0895 33.3897 25.4711C33.0977 26.3456 32.44 26.9146 31.9217 26.7415C31.8104 26.7043 31.7152 26.6367 31.6362 26.5437C31.6902 26.9543 31.8768 27.2667 32.1687 27.3642" fill="#F9B800"/>
<path d="M32.3332 25.2827C32.3154 25.2827 32.2982 25.2758 32.2815 25.2608C32.1886 25.1771 32.2452 24.963 32.408 24.7823C32.5266 24.6507 32.6687 24.5733 32.773 24.5733C32.8119 24.5733 32.8455 24.5841 32.8707 24.6067C32.9636 24.6905 32.8054 24.8131 32.6426 24.9937C32.5092 25.1417 32.4142 25.2827 32.3332 25.2827Z" fill="#FBD159"/>
<path d="M32.0401 25.7622C32.0322 25.7622 32.0238 25.7608 32.0151 25.7578C31.9461 25.7348 31.9179 25.6335 31.9519 25.5315C31.9813 25.4435 32.0474 25.3838 32.1093 25.3838C32.1192 25.3838 32.1289 25.3853 32.1384 25.3884C32.2073 25.4114 32.1916 25.5061 32.1576 25.6081C32.1278 25.6971 32.0939 25.7622 32.0401 25.7622Z" fill="#FBD159"/>
<path d="M36.5479 27.0054V29.1689C36.5479 29.528 36.52 29.8808 36.467 30.2249C36.3976 30.6756 36.2839 31.1128 36.13 31.5299C35.1685 34.154 32.6472 36.0271 29.6896 36.0271H20.2273C17.2696 36.0271 14.7484 34.154 13.7869 31.5299C13.6331 31.1128 13.5193 30.6756 13.4499 30.2249C13.397 29.8808 13.3691 29.528 13.3691 29.1689V27.0054C13.3691 26.6455 13.661 26.3529 14.0215 26.3529H35.8954C36.256 26.3529 36.5479 26.6455 36.5479 27.0054" fill="white"/>
<path d="M13.3691 29.1619H36.5479V28.3785H13.3691V29.1619Z" fill="#FF1564"/>
<path d="M36.4673 30.225C36.3979 30.6757 36.2842 31.1129 36.1303 31.53H13.7872C13.6334 31.1129 13.5196 30.6757 13.4502 30.225H36.4673" fill="#0399FF"/>
<path d="M18.6279 35.6177C16.5075 35.0916 14.7857 33.5441 14.0174 31.5299H14.5265C15.221 33.4252 16.7294 34.9288 18.6279 35.6177ZM14.1895 30.2249H13.6679C13.6126 29.8809 13.584 29.5281 13.584 29.1688V29.1618H14.1086V29.1689C14.1086 29.528 14.1365 29.8807 14.1895 30.2249V30.2249ZM14.1086 28.3784H13.584V27.0057C13.584 26.7643 13.7804 26.5678 14.0219 26.5678H14.2772C14.1724 26.6837 14.1086 26.8372 14.1086 27.0054V28.3784" fill="white"/>
<path d="M13.584 29.1619H14.1086V28.3785H13.584V29.1619Z" fill="#FF95B9"/>
<path d="M14.5261 31.53H14.017C13.8581 31.1133 13.7399 30.6766 13.6675 30.225H14.1891C14.2585 30.6757 14.3722 31.1129 14.5261 31.53Z" fill="#8DD1FF"/>
<path d="M29.6899 35.8125H29.3125C29.2974 35.8111 29.282 35.8105 29.2664 35.8105H27.5786C29.7126 35.2605 31.4446 33.709 32.2427 31.6875C32.3841 31.6723 32.5131 31.6156 32.6172 31.5298H35.9001C34.9461 34.031 32.5221 35.8125 29.6899 35.8125ZM36.2496 30.2248H34.2275C34.2632 30.1405 34.283 30.0478 34.283 29.9505V29.1617H36.3335V29.1687C36.3335 29.5281 36.3049 29.8808 36.2496 30.2248V30.2248ZM32.9312 30.2248H32.8757V29.9505C32.8757 30.0478 32.8955 30.1405 32.9312 30.2248ZM36.3335 28.3783H34.283V28.3782C34.2867 28.3543 34.2887 28.33 34.2887 28.305C34.2887 28.2801 34.2867 28.2557 34.283 28.2318V26.6391V26.5677H35.8957C36.1371 26.5677 36.3335 26.7642 36.3335 27.0056V28.3783" fill="#C3B2D6"/>
<path d="M34.2832 29.1619H36.3337V28.3785H34.2832V29.1619Z" fill="#C30F69"/>
<path d="M35.9001 31.53H32.6172C32.7751 31.3999 32.8757 31.2029 32.8757 30.9823V30.225H32.9312C33.0381 30.4772 33.2881 30.6542 33.5793 30.6542C33.8706 30.6542 34.1206 30.4772 34.2274 30.225H36.2496C36.1772 30.6766 36.0591 31.1133 35.9001 31.53" fill="#136BD6"/>
<path d="M14.0214 26.5677C13.7799 26.5677 13.5835 26.7642 13.5835 27.0056V29.1687C13.5835 32.8321 16.5639 35.8124 20.2273 35.8124H29.6897C33.3529 35.8124 36.3333 32.8321 36.3333 29.1687V27.0056C36.3333 26.7642 36.1369 26.5677 35.8956 26.5677H14.0214ZM29.6897 36.2417H20.2273C16.3272 36.2417 13.1543 33.0688 13.1543 29.1687V27.0056C13.1543 26.5275 13.5433 26.1385 14.0214 26.1385H35.8956C36.3736 26.1385 36.7627 26.5275 36.7627 27.0056V29.1687C36.7627 33.0688 33.5897 36.2417 29.6897 36.2417Z" fill="#390176"/>
<path d="M29.2666 37.6853H20.6511C20.4801 37.6853 20.3413 37.5466 20.3413 37.3756V36.3348C20.3413 36.1637 20.4801 36.025 20.6511 36.025H29.2666C29.4377 36.025 29.5763 36.1637 29.5763 36.3348V37.3756C29.5763 37.5466 29.4377 37.6853 29.2666 37.6853Z" fill="white"/>
<path d="M20.6508 36.2396C20.5985 36.2396 20.5557 36.2822 20.5557 36.3347V37.3755C20.5557 37.428 20.5985 37.4706 20.6508 37.4706H29.2663C29.3188 37.4706 29.3615 37.428 29.3615 37.3755V36.3347C29.3615 36.2822 29.3188 36.2396 29.2663 36.2396H20.6508ZM29.2663 37.8999H20.6508C20.3617 37.8999 20.1265 37.6646 20.1265 37.3755V36.3347C20.1265 36.0456 20.3617 35.8103 20.6508 35.8103H29.2663C29.5555 35.8103 29.7907 36.0456 29.7907 36.3347V37.3755C29.7907 37.6646 29.5555 37.8999 29.2663 37.8999Z" fill="#390176"/>
<path d="M31.4572 26.1025V29.1756C31.4572 29.5675 31.1397 29.885 30.7478 29.885C30.3561 29.885 30.0386 29.5675 30.0386 29.1756V26.1025H31.4572Z" fill="#F9B800"/>
<path d="M34.2832 26.1024V29.9504C34.2832 30.3391 33.9682 30.6541 33.5796 30.6541C33.191 30.6541 32.876 30.3391 32.876 29.9504V26.1024H34.2832" fill="#F9B800"/>
<path d="M32.8758 26.1024V30.982C32.8758 31.3738 32.5582 31.6914 32.1664 31.6914C31.7747 31.6914 31.457 31.3738 31.457 30.982V26.1024H32.8758Z" fill="#F9B800"/>
<path d="M30.0386 26.6392H31.4572V26.1025H30.0386V26.6392Z" fill="#FCDF8C"/>
<path d="M34.2832 26.6392H32.876V26.1025H34.2832V26.1385V26.5678V26.6392Z" fill="#FCDF8C"/>
<path d="M31.457 26.6392H32.8758V26.1025H31.457V26.6392Z" fill="#FCDF8C"/>
<path d="M32.4108 28.77H31.922C31.6653 28.77 31.457 28.5619 31.457 28.305C31.457 28.0483 31.6653 27.8401 31.922 27.8401H32.4108C32.65 27.8401 32.8472 28.0208 32.8729 28.2531C32.871 28.2703 32.87 28.2875 32.87 28.305C32.87 28.3226 32.871 28.3399 32.8729 28.3569C32.8472 28.5893 32.65 28.77 32.4108 28.77Z" fill="#FCDF8C"/>
<path d="M34.2832 28.3782V28.2318C34.287 28.2557 34.289 28.2801 34.289 28.3049C34.289 28.3299 34.287 28.3543 34.2832 28.3782Z" fill="#E4DCED"/>
<path d="M33.8239 28.77H33.3352C33.1033 28.77 32.9111 28.6003 32.876 28.3783V28.305V28.2319C32.9111 28.0099 33.1033 27.8401 33.3352 27.8401H33.8239C34.0558 27.8401 34.248 28.0099 34.2832 28.2319V28.3783C34.248 28.6003 34.0558 28.77 33.8239 28.77Z" fill="#FCDF8C"/>
<path d="M32.8759 28.3782C32.8748 28.371 32.8738 28.3639 32.873 28.3568C32.8749 28.3398 32.8759 28.3226 32.8759 28.3049V28.3782ZM32.8759 28.3049C32.8759 28.2874 32.8749 28.2702 32.873 28.2531C32.8738 28.2459 32.8748 28.2389 32.8759 28.2318V28.3049Z" fill="#FCDF8C"/>
<path d="M32.873 28.3569C32.8711 28.3399 32.8701 28.3227 32.8701 28.3051C32.8701 28.2876 32.8711 28.2703 32.873 28.2532C32.8749 28.2703 32.8759 28.2876 32.8759 28.3051C32.8759 28.3227 32.8749 28.3399 32.873 28.3569Z" fill="#FEF1CB"/>
<path d="M30.0385 28.3784H29.9784C29.9747 28.3545 29.9727 28.33 29.9727 28.305C29.9727 28.2179 29.9967 28.1363 30.0385 28.0665V28.3784" fill="white"/>
<path d="M30.0382 28.5437C30.0083 28.494 29.9875 28.4381 29.978 28.3784H30.0382V28.5437Z" fill="#FF95B9"/>
<path d="M30.9264 28.77H30.4377C30.2681 28.77 30.1197 28.6793 30.0386 28.5436V28.3784V28.0665C30.1197 27.9309 30.2681 27.8401 30.4377 27.8401H30.9264C31.1832 27.8401 31.3914 28.0483 31.3914 28.305C31.3914 28.5619 31.1832 28.77 30.9264 28.77" fill="#FCDF8C"/>
<path d="M30.5553 26.3171C30.3886 26.3171 30.2531 26.4527 30.2531 26.6193V29.1756C30.2531 29.4485 30.475 29.6704 30.7478 29.6704C31.0206 29.6704 31.2424 29.4485 31.2424 29.1756V26.3171H30.5553ZM30.7478 30.0996C30.2382 30.0996 29.8237 29.6851 29.8237 29.1756V26.6193C29.8237 26.2159 30.152 25.8878 30.5553 25.8878H31.6718V29.1756C31.6718 29.6851 31.2572 30.0996 30.7478 30.0996Z" fill="#390176"/>
<path d="M33.0904 26.317V29.9504C33.0904 30.22 33.3098 30.4394 33.5794 30.4394C33.849 30.4394 34.0684 30.22 34.0684 29.9504V26.6193C34.0684 26.4526 33.9329 26.317 33.7661 26.317H33.0904ZM33.5794 30.8687C33.073 30.8687 32.6611 30.4568 32.6611 29.9504V25.8878H33.7661C34.1695 25.8878 34.4978 26.2159 34.4978 26.6193V29.9504C34.4978 30.4568 34.0858 30.8687 33.5794 30.8687Z" fill="#390176"/>
<path d="M31.6716 26.317V30.982C31.6716 31.2549 31.8934 31.4768 32.1662 31.4768C32.4389 31.4768 32.6609 31.2549 32.6609 30.982V26.317H31.6716ZM32.1662 31.906C31.6568 31.906 31.2422 31.4915 31.2422 30.982V25.8877H33.0902V30.982C33.0902 31.4915 32.6757 31.906 32.1662 31.906" fill="#390176"/>
<path d="M17.3375 32.6042C17.2169 32.2485 17.1109 31.8904 17.0197 31.5298H19.5186C19.5843 31.756 19.6555 31.983 19.7318 32.211L17.3375 32.6042ZM19.2 30.2248H16.7554C16.7015 29.8727 16.6612 29.5183 16.6346 29.1617H19.0397C19.0765 29.5133 19.1303 29.8679 19.2 30.2248V30.2248ZM18.9865 28.3783H16.5979C16.596 28.2809 16.5951 28.1835 16.5952 28.0859L18.9897 27.6925C18.9805 27.9198 18.9795 28.1484 18.9865 28.3783" fill="white"/>
<path d="M19.04 29.1619H16.6349C16.6154 28.902 16.6031 28.6407 16.5981 28.3785H18.9868C18.9946 28.638 19.0125 28.8991 19.04 29.1619Z" fill="#FF95B9"/>
<path d="M19.5186 31.53H17.0197C16.9105 31.0984 16.8224 30.6635 16.7554 30.225H19.2C19.284 30.6565 19.3911 31.0916 19.5186 31.53Z" fill="#8DD1FF"/>
<path d="M27.3878 26.1384H26.6312C26.273 25.1692 25.6426 24.3311 24.8331 23.7169C24.9956 23.3718 24.9682 23.0897 24.8783 22.8763C26.0535 23.6328 26.9526 24.7828 27.3878 26.1384ZM26.1707 26.1384H25.3872C25.1282 25.6114 24.7623 25.1457 24.3182 24.7701C24.6493 24.6196 24.7476 24.3943 24.7653 24.2117C25.3781 24.7261 25.8646 25.3863 26.1707 26.1384ZM24.9022 26.1384H24.0486C23.8997 25.9421 23.7278 25.7642 23.5369 25.6086C23.8238 25.5223 23.9946 25.3214 24.0934 25.1428C24.4159 25.4257 24.6902 25.7622 24.9022 26.1384ZM23.4824 26.1384H22.7275C22.9182 26.0562 23.0458 25.9353 23.1258 25.8344C23.2535 25.9253 23.3728 26.0271 23.4824 26.1384" fill="#BF8124"/>
<path d="M27.6126 26.1384H27.3879C26.9526 24.7828 26.0535 23.6328 24.8784 22.8763C24.8323 22.7667 24.7694 22.675 24.7075 22.6024L24.7451 22.5438C26.1029 23.331 27.1409 24.6117 27.6126 26.1384Z" fill="#390176"/>
<path d="M26.631 26.1384H26.1705C25.8644 25.3863 25.3779 24.7261 24.7652 24.2117C24.7818 24.0405 24.7275 23.9068 24.7275 23.9068C24.7692 23.8414 24.804 23.7782 24.8329 23.7169C25.6424 24.331 26.2728 25.1692 26.631 26.1384" fill="#390176"/>
<path d="M25.387 26.1384H24.902C24.69 25.7622 24.4158 25.4257 24.0933 25.1428C24.1914 24.9657 24.2189 24.8103 24.2189 24.8103C24.254 24.7977 24.287 24.7842 24.318 24.7701C24.7621 25.1457 25.128 25.6114 25.387 26.1384Z" fill="#390176"/>
<path d="M24.0487 26.1384H23.4826C23.373 26.0271 23.2537 25.9253 23.126 25.8344C23.2067 25.7328 23.239 25.6517 23.239 25.6517C23.3502 25.6508 23.4491 25.6351 23.5371 25.6086C23.728 25.7642 23.8999 25.9421 24.0487 26.1384Z" fill="#390176"/>
<path d="M27.6403 26.2307H22.3354C22.4888 26.2201 22.6186 26.1857 22.7277 26.1386H23.4826H24.0487H24.9023H25.3873H26.1708H26.6313H27.388H27.6127C27.6222 26.1692 27.6313 26.1998 27.6403 26.2307Z" fill="#390176"/>
<path d="M43.0678 17.6105L17.9656 13.8909C17.6125 13.8385 17.3673 13.5122 17.4151 13.1584C17.4631 12.8048 17.7865 12.5554 18.1408 12.599L43.3273 15.6967C43.8613 15.7623 44.2386 16.2518 44.1664 16.7849C44.094 17.318 43.6 17.6894 43.0678 17.6105" fill="#FF1564"/>
<path d="M42.0574 16.1431L18.0816 13.0237C18.0527 13.0199 18.024 13.0181 17.9957 13.0181C17.8665 13.0181 17.7446 13.0566 17.6411 13.1241C17.6951 12.9388 17.868 12.8087 18.0615 12.8087C18.079 12.8087 18.0966 12.8098 18.1144 12.8119L42.3137 15.7882C42.2058 15.8902 42.1193 16.0103 42.0574 16.1431Z" fill="#FF95B9"/>
<path d="M43.099 17.3981C43.2993 17.4276 43.4985 17.3772 43.6604 17.2556C43.8222 17.1339 43.9263 16.9566 43.9534 16.7559C43.9807 16.5554 43.9275 16.3567 43.8039 16.1964C43.6804 16.0362 43.5017 15.9343 43.3008 15.9096L18.1143 12.8119C17.8784 12.7829 17.6597 12.9512 17.6277 13.1872C17.5957 13.4232 17.7613 13.6436 17.9968 13.6784L43.099 17.3981V17.3981ZM43.2118 17.8357C43.1535 17.8357 43.0948 17.8314 43.0362 17.8227L17.9339 14.1031C17.467 14.0339 17.1388 13.5972 17.2022 13.1296C17.2657 12.6619 17.6984 12.3282 18.1667 12.3859L43.3532 15.4836C43.6689 15.5223 43.9497 15.6824 44.1439 15.9343C44.3382 16.1862 44.4215 16.4984 44.3788 16.8137C44.3362 17.1288 44.1725 17.4076 43.9183 17.5987C43.7115 17.7541 43.4657 17.8357 43.2118 17.8357" fill="#390176"/>
<path d="M42.9828 17.8154C42.6672 17.7767 42.3864 17.6166 42.1922 17.3647C41.9979 17.1128 41.9146 16.8005 41.9572 16.4853C41.9999 16.1702 42.1636 15.8914 42.4177 15.7003C42.6721 15.5093 42.9856 15.4298 43.2999 15.4763L43.237 15.9009C43.0368 15.8714 42.8375 15.9218 42.6757 16.0435C42.5139 16.165 42.4098 16.3424 42.3827 16.543C42.3554 16.7435 42.4086 16.9423 42.5321 17.1025C42.6557 17.2628 42.8343 17.3647 43.0352 17.3894L42.9828 17.8154" fill="#390176"/>
<path d="M43.211 17.4062C43.174 17.4062 43.1366 17.4035 43.0993 17.398L42.9772 17.38C42.8002 17.3443 42.644 17.2471 42.5323 17.1025C42.4088 16.9423 42.3557 16.7435 42.383 16.543C42.4101 16.3424 42.5142 16.165 42.676 16.0435C42.8076 15.9445 42.9641 15.8927 43.1257 15.8927C43.1436 15.8927 43.1617 15.8933 43.1797 15.8947L43.3011 15.9095C43.502 15.9343 43.6807 16.0362 43.8042 16.1964C43.9278 16.3566 43.9809 16.5554 43.9537 16.7559C43.9266 16.9565 43.8225 17.1339 43.6607 17.2555C43.5291 17.3544 43.3726 17.4062 43.211 17.4062" fill="#C30F69"/>
<path d="M43.1869 17.615C43.1299 17.615 43.0708 17.611 43.0092 17.6026L43.0353 17.3896C43.0157 17.3872 42.9963 17.3841 42.9771 17.3802L43.0992 17.3982C43.1364 17.4037 43.1738 17.4065 43.2108 17.4065C43.3724 17.4065 43.5289 17.3546 43.6606 17.2557C43.8223 17.1341 43.9264 16.9567 43.9536 16.7561C43.9808 16.5556 43.9277 16.3569 43.8041 16.1966C43.6806 16.0364 43.5018 15.9345 43.3009 15.9097L43.1796 15.8949C43.1987 15.8961 43.2179 15.8982 43.2372 15.9011L43.2687 15.6889C44.5579 15.8636 44.3803 17.615 43.1869 17.615" fill="#390176"/>
<path d="M43.0091 17.6025C42.4751 17.5369 42.0977 17.0475 42.17 16.5143C42.2357 16.0293 42.6506 15.6782 43.1257 15.6782C43.1729 15.6782 43.2205 15.6817 43.2685 15.6888L43.2371 15.901C43.2179 15.8982 43.1986 15.896 43.1795 15.8948C43.1615 15.8934 43.1434 15.8928 43.1255 15.8928C42.9639 15.8928 42.8074 15.9447 42.6757 16.0437C42.514 16.1652 42.4099 16.3425 42.3827 16.5432C42.3555 16.7437 42.4086 16.9424 42.5321 17.1027C42.6437 17.2473 42.8 17.3444 42.977 17.3802C42.9962 17.384 43.0156 17.3872 43.0352 17.3895L43.0091 17.6025" fill="#390176"/>
<path d="M23.9702 16.1306C23.7298 16.1306 23.4792 16.0524 23.3076 15.9849V14.8994L24.2669 15.0415V16.0802C24.1747 16.1161 24.0733 16.1306 23.9702 16.1306ZM22.5842 16.0647C22.3261 16.0647 22.0924 15.947 21.9356 15.8421V14.6961L22.8783 14.8357V16.0099C22.7786 16.0486 22.6797 16.0647 22.5842 16.0647V16.0647ZM21.1323 15.8887C20.8941 15.8887 20.6987 15.7905 20.5636 15.6931V14.4927L21.5063 14.6325V15.8085C21.3728 15.8657 21.2476 15.8887 21.1323 15.8887V15.8887ZM19.6583 15.7575C19.4587 15.7575 19.2974 15.6871 19.1748 15.6007V14.287L20.1342 14.4291V15.6349C19.9567 15.723 19.7982 15.7575 19.6583 15.7575" fill="#BF8124"/>
<path d="M24.2669 16.0803V15.0416L24.428 15.0654V15.9856C24.379 16.0267 24.3248 16.0577 24.2669 16.0803V16.0803ZM19.1748 15.6008C18.9808 15.4643 18.8833 15.2881 18.8833 15.2881L18.9494 14.2537L19.1748 14.2871V15.6008" fill="#390176"/>
<path d="M20.5637 15.6931C20.4307 15.5975 20.3559 15.5026 20.3559 15.5026C20.2792 15.556 20.2052 15.5997 20.1343 15.6349V14.4291L20.5637 14.4927V15.6931Z" fill="#390176"/>
<path d="M22.8783 16.0098V14.8356L23.3076 14.8993V15.9848C23.1775 15.9336 23.093 15.8886 23.093 15.8886C23.0216 15.9424 22.9498 15.9819 22.8783 16.0098V16.0098ZM21.9356 15.842C21.8093 15.7575 21.7327 15.6813 21.7327 15.6813C21.6551 15.7351 21.5795 15.7769 21.5063 15.8084V14.6324L21.9356 14.696V15.842" fill="#390176"/>
<path d="M24.4278 15.0654L24.2667 15.0416L23.3073 14.8994L22.8781 14.8358L21.9353 14.6962L21.5061 14.6325L20.5633 14.4928L20.134 14.4292L19.1746 14.287L18.9492 14.2537L18.96 14.0845L24.4278 14.8948V15.0654" fill="#390176"/>
<path d="M22.5057 25.9016L21.5063 25.5795C22.0397 25.0104 22.3042 24.3982 22.1078 23.7129L23.1074 24.035C23.3077 24.7131 22.9587 25.4462 22.5057 25.9016Z" fill="#5BDD40"/>
<path d="M23.1126 24.0544C23.1124 24.0543 23.1126 24.0544 23.1124 24.0543C23.1107 24.0479 23.1088 24.0416 23.1069 24.0351H23.1071C23.1089 24.0416 23.1108 24.0479 23.1126 24.0544Z" fill="#FCDF8C"/>
<path d="M23.1485 24.2207C23.14 24.1651 23.1283 24.1096 23.1128 24.0545C23.1129 24.0546 23.1128 24.0545 23.1129 24.0546C23.1283 24.1097 23.14 24.1651 23.1485 24.2207Z" fill="#A68CC1"/>
<path d="M22.1315 23.8064H22.1313C22.1243 23.7754 22.1163 23.7443 22.1074 23.7129L22.1075 23.713C22.1164 23.7443 22.1244 23.7754 22.1315 23.8064Z" fill="#FCDF8C"/>
<path d="M22.1721 24.1416C22.1705 24.032 22.1572 23.9204 22.1313 23.8066H22.1316C22.1575 23.9202 22.1706 24.0319 22.1721 24.1416" fill="#A68CC1"/>
<path d="M23.1575 24.5955C23.1515 24.5651 23.1434 24.5346 23.1345 24.5038L22.1723 24.1938C22.1727 24.1765 22.1727 24.159 22.1724 24.1415C22.1709 24.0317 22.1578 23.9201 22.1319 23.8065C22.1248 23.7755 22.1168 23.7443 22.1079 23.7131L23.1073 24.0351C23.1092 24.0416 23.111 24.048 23.1128 24.0543C23.1283 24.1095 23.14 24.165 23.1485 24.2206C23.1675 24.3453 23.1697 24.4708 23.1575 24.5955" fill="#B5F0A9"/>
<path d="M21.8797 25.4743L22.4419 25.6556C22.7566 25.2978 23.0356 24.7465 22.9277 24.2026L22.3827 24.027C22.4219 24.5173 22.2557 24.9955 21.8797 25.4743V25.4743ZM22.5057 26.1162C22.4836 26.1162 22.4614 26.1128 22.4398 26.1058L21.4403 25.7838C21.3704 25.7612 21.3168 25.7045 21.2983 25.6332C21.2799 25.5621 21.2993 25.4865 21.3496 25.4327C21.8866 24.8598 22.0618 24.3321 21.9013 23.772C21.8796 23.6957 21.9014 23.6137 21.9584 23.5586C22.0153 23.5035 22.0981 23.4842 22.1736 23.5086L23.1729 23.8306C23.2406 23.8523 23.2928 23.9061 23.3129 23.9741C23.5517 24.7821 23.1093 25.599 22.6578 26.053C22.6169 26.0941 22.5618 26.1162 22.5057 26.1162" fill="#390176"/>
<path d="M28.9608 24.0115L28.0796 24.5825C27.9756 23.8093 27.6684 23.2175 27.0132 22.9365L27.8944 22.3655C28.5466 22.6389 28.8942 23.3728 28.9608 24.0115Z" fill="#5BDD40"/>
<path d="M27.3876 23.1587C27.3692 23.1441 27.3503 23.1298 27.3311 23.1159C27.3313 23.1159 27.3311 23.1159 27.3312 23.1159C27.3504 23.1298 27.3692 23.1441 27.3876 23.1587" fill="#FCDF8C"/>
<path d="M27.3311 23.116C27.2357 23.0471 27.1301 22.9872 27.0132 22.9368H27.0133C27.1301 22.9868 27.2359 23.0468 27.3312 23.116C27.3311 23.116 27.3314 23.116 27.3311 23.116Z" fill="#A68CC1"/>
<path d="M28.0819 22.4614C28.0816 22.4613 28.0814 22.4611 28.0811 22.4609C28.0814 22.4612 28.0816 22.4613 28.0819 22.4614ZM28.0786 22.4596C28.0781 22.4592 28.0776 22.4588 28.077 22.4586C28.0776 22.4588 28.0781 22.4592 28.0786 22.4596ZM28.0759 22.4578C28.0184 22.4232 27.9579 22.3922 27.8945 22.3657H27.8947C27.958 22.3922 28.0184 22.4232 28.0759 22.4578Z" fill="#BAF5FF"/>
<path d="M27.427 23.1907C27.4142 23.1798 27.4012 23.1692 27.3879 23.1587C27.3695 23.144 27.3508 23.1298 27.3315 23.1159C27.2362 23.0468 27.1304 22.9868 27.0137 22.9368L27.8949 22.3658C27.9583 22.3923 28.0188 22.4233 28.0763 22.4579C28.0767 22.4582 28.077 22.4584 28.0774 22.4587C28.078 22.4589 28.0785 22.4593 28.079 22.4597C28.0799 22.4602 28.0807 22.4605 28.0815 22.461C28.0818 22.4612 28.082 22.4614 28.0823 22.4615C28.184 22.5237 28.2768 22.5977 28.361 22.681C28.3337 22.6664 28.3048 22.6535 28.2754 22.641L27.427 23.1907Z" fill="#B5F0A9"/>
<path d="M27.4307 22.9221C27.8355 23.2017 28.1009 23.6327 28.2345 24.2267L28.7302 23.9056C28.6517 23.4356 28.4009 22.871 27.9112 22.6109L27.4307 22.9221ZM28.0799 24.7974C28.0494 24.7974 28.0187 24.7909 27.9902 24.7777C27.9234 24.747 27.8769 24.6842 27.8671 24.6114C27.7625 23.8331 27.4644 23.3637 26.9289 23.134C26.856 23.1027 26.8062 23.0339 26.7996 22.955C26.7929 22.876 26.8302 22.7997 26.8967 22.7566L27.778 22.1856C27.8376 22.147 27.9125 22.1404 27.9777 22.1679C28.7547 22.4935 29.1081 23.3526 29.1746 23.9895C29.183 24.0697 29.1455 24.148 29.0777 24.1919L28.1965 24.7629C28.1612 24.7857 28.1206 24.7974 28.0799 24.7974" fill="#390176"/>
<path d="M25.1283 21.9478L24.5603 22.8311C24.1471 22.1694 23.6235 21.7567 22.9106 21.7704L23.4785 20.8872C24.1854 20.8677 24.8044 21.3932 25.1283 21.9478" fill="#5BDD40"/>
<path d="M23.3415 21.8181C23.2156 21.7867 23.083 21.7702 22.9428 21.7702C22.9321 21.7702 22.9215 21.7704 22.9106 21.7706L22.9108 21.7705C22.9223 21.7702 22.9336 21.7701 22.945 21.7701C23.0843 21.7701 23.2161 21.7866 23.3415 21.8181" fill="#A68CC1"/>
<path d="M23.6833 20.8965C23.683 20.8965 23.6828 20.8965 23.6826 20.8965C23.6829 20.8965 23.683 20.8965 23.6833 20.8965ZM23.6805 20.8961C23.6795 20.8961 23.6785 20.896 23.6776 20.8959C23.6785 20.896 23.6795 20.8961 23.6805 20.8961ZM23.6771 20.8957C23.6244 20.8897 23.571 20.8866 23.517 20.8866C23.5045 20.8866 23.4916 20.8867 23.479 20.8871L23.4791 20.887C23.4916 20.8867 23.5041 20.8865 23.5165 20.8865C23.5706 20.8865 23.6243 20.8897 23.6771 20.8957" fill="#FCDF8C"/>
<path d="M23.3924 21.8315C23.3756 21.8268 23.3588 21.8223 23.3419 21.818C23.2165 21.7865 23.0846 21.77 22.9454 21.77C22.934 21.77 22.9226 21.7702 22.9111 21.7704L23.479 20.8872C23.4916 20.8868 23.5045 20.8867 23.517 20.8867C23.571 20.8867 23.6244 20.8898 23.6771 20.8958C23.6773 20.8959 23.6774 20.8959 23.6776 20.8959C23.6785 20.896 23.6795 20.8962 23.6805 20.8962C23.6811 20.8963 23.6819 20.8964 23.6826 20.8965C23.6828 20.8965 23.683 20.8965 23.6833 20.8965C23.8036 20.9109 23.9206 20.9405 24.0335 20.9824C24.0149 20.9813 23.996 20.9808 23.9769 20.9808C23.9644 20.9808 23.9518 20.981 23.9391 20.9813L23.3924 21.8315" fill="#B5F0A9"/>
<path d="M23.2851 21.5853C23.7693 21.6733 24.1885 21.9567 24.5549 22.443L24.8743 21.9463C24.6094 21.5503 24.148 21.1392 23.5948 21.1037L23.2851 21.5853ZM24.5605 23.0457H24.5591C24.4855 23.0453 24.4174 23.0072 24.3785 22.9448C23.97 22.2905 23.5141 21.9847 22.946 21.9847C22.9356 21.9847 22.9254 21.9848 22.9151 21.985C22.8331 21.9857 22.7621 21.9442 22.7235 21.875C22.6849 21.8058 22.6875 21.721 22.7304 21.6543L23.2983 20.771C23.3366 20.7114 23.402 20.6745 23.4729 20.6727C24.3169 20.6483 24.991 21.2868 25.3138 21.8397C25.3545 21.9093 25.3526 21.996 25.309 22.0639L24.741 22.9472C24.7015 23.0087 24.6335 23.0457 24.5605 23.0457Z" fill="#390176"/>
<path d="M29.2662 37.4707H24.0137C26.1647 37.2122 26.8112 36.613 27.0023 36.2396H29.2662C29.3187 36.2396 29.3613 36.2823 29.3613 36.3348V37.3756C29.3613 37.4281 29.3187 37.4707 29.2662 37.4707" fill="#C3B2D6"/>
<path d="M29.2662 37.6853H20.6508C20.5555 37.6853 20.4714 37.6413 20.4146 37.5737C20.8408 37.5889 21.2394 37.5961 21.6129 37.5961C22.5712 37.5961 23.3615 37.5491 24.0138 37.4707H29.2662C29.3187 37.4707 29.3614 37.4281 29.3614 37.3756V36.3348C29.3614 36.2823 29.3187 36.2397 29.2662 36.2397H27.0024C27.0463 36.1539 27.0661 36.0802 27.0748 36.025H29.2662C29.4374 36.025 29.576 36.1637 29.576 36.3348V37.3756C29.576 37.5466 29.4374 37.6853 29.2662 37.6853" fill="#390176"/>
<path d="M25.2038 43.4392C19.7343 43.4392 15.3003 43.0308 15.3003 42.5271C15.3003 42.0233 19.7343 41.615 25.2038 41.615C30.6733 41.615 35.1073 42.0233 35.1073 42.5271C35.1073 43.0308 30.6733 43.4392 25.2038 43.4392Z" fill="#59A3D6"/>
</svg>
